<?xml version="1.0" standalone="no"?>
<!DOCTYPE svg PUBLIC "-//W3C//DTD SVG 20010904//EN"
 "http://www.w3.org/TR/2001/REC-SVG-20010904/DTD/svg10.dtd">
<svg version="1.0" xmlns="http://www.w3.org/2000/svg"
 width="500.000000pt" height="500.000000pt" viewBox="0 0 500.000000 500.000000"
 preserveAspectRatio="xMidYMid meet">

<g transform="translate(0.000000,500.000000) scale(0.100000,-0.100000)"
fill="#000000" stroke="none">
<path d="M0 2500 l0 -2500 2500 0 2500 0 0 2500 0 2500 -2500 0 -2500 0 0
-2500z m3523 1935 c21 9 42 13 47 10 6 -4 10 -565 10 -1511 0 -1636 -3 -1546
55 -1572 17 -8 84 -12 188 -12 95 0 167 -4 173 -10 7 -7 -24 -111 -91 -312
-55 -167 -104 -309 -109 -317 -14 -22 -328 -9 -416 17 -138 41 -279 135 -377
251 -32 38 -63 70 -69 70 -6 1 -115 -77 -242 -173 l-230 -174 -109 -6 c-212
-13 -477 15 -619 67 -241 88 -482 335 -564 577 -42 123 -43 137 -49 550 l-6
405 -154 7 c-84 4 -155 9 -158 11 -2 3 43 146 100 318 l105 314 53 5 54 5 3
396 2 396 -156 6 c-86 3 -158 7 -160 10 -3 2 42 143 98 313 l103 309 65 8 c99
12 274 0 355 -25 91 -27 155 -69 247 -160 79 -78 125 -151 161 -258 l22 -65 5
-1150 5 -1150 22 -47 c33 -71 107 -141 176 -167 56 -20 72 -21 413 -19 l354 3
3 1440 2 1440 75 26 c41 14 82 29 90 32 8 3 101 33 205 67 105 34 206 67 225
75 29 11 36 10 45 -2 9 -12 16 -12 48 2z"/>
</g>
</svg>
