<?xml version="1.0" standalone="no"?>
<!DOCTYPE svg PUBLIC "-//W3C//DTD SVG 20010904//EN"
 "http://www.w3.org/TR/2001/REC-SVG-20010904/DTD/svg10.dtd">
<svg version="1.0" xmlns="http://www.w3.org/2000/svg"
 width="500.000000pt" height="500.000000pt" viewBox="0 0 500.000000 500.000000"
 preserveAspectRatio="xMidYMid meet">

<g transform="translate(0.000000,500.000000) scale(0.100000,-0.100000)"
fill="#000000" stroke="none">
<path d="M3120 4176 l-395 -133 -3 -1107 -2 -1107 -236 3 -236 3 -24 30 -24
30 0 865 c0 965 1 939 -69 1084 -84 172 -219 286 -406 342 -47 14 -95 18 -219
19 l-159 0 -129 -385 c-70 -212 -131 -393 -134 -402 -5 -17 7 -18 150 -18
l156 0 0 -159 c0 -158 0 -160 -22 -163 -23 -3 -60 -109 -284 -790 -5 -17 7
-18 149 -18 l155 0 4 -252 c5 -240 6 -258 32 -343 96 -317 359 -562 677 -631
44 -9 149 -18 259 -21 l185 -6 165 124 c91 68 171 128 178 132 9 6 34 -12 80
-55 80 -76 199 -140 309 -169 52 -13 128 -22 229 -26 l151 -6 136 407 135 406
-194 0 -194 0 0 1240 c0 986 -3 1240 -12 1239 -7 0 -191 -60 -408 -133z m312
-1223 l3 -1218 178 -3 c136 -2 178 -5 174 -15 -2 -6 -48 -144 -102 -306 l-98
-294 -116 6 c-134 8 -193 22 -299 72 -63 30 -93 53 -168 129 l-90 94 -200
-150 -199 -150 -175 5 c-196 7 -263 19 -377 72 -183 84 -338 243 -410 418 -53
130 -55 145 -60 460 l-5 297 -134 0 c-74 0 -134 3 -134 8 0 4 44 140 98 302
l99 295 36 3 37 3 0 260 0 259 -135 0 c-74 0 -135 3 -135 8 0 4 44 140 98 302
l99 295 96 3 c117 3 205 -15 296 -63 117 -62 213 -174 262 -308 l24 -62 5
-907 5 -906 30 -43 c59 -84 60 -84 395 -84 l295 0 3 1120 2 1120 288 97 c158
53 293 97 299 97 10 1 13 -252 15 -1216z"/>
</g>
</svg>
